<?xml version="1.0"?>
<svg xmlns="http://www.w3.org/2000/svg" xmlns:xlink="http://www.w3.org/1999/xlink" version="1.1" id="Capa_1" x="0px" y="0px" viewBox="0 0 512 512" style="enable-background:new 0 0 512 512;" xml:space="preserve" width="512px" height="512px" class=""><g><g>
	<g>
		<path d="M482,112c-20-20-44-30-72-30H102c-28,0-52,10-72,30S0,156,0,184v143c0,28.667,10,53,30,73    s44,30,72,30h308c28,0,52-10,72-30s30-44.333,30-73V184C512,156,502,132,482,112z M205,338h-41v-21h-60l-14,21H36l119-164h50V338z     M330.5,315c-13.667,15.333-31.834,23-54.5,23h-10h-51V174h53h1c22.667,0,42,8,58,24s24,35.667,24,59    C351,280.334,344.167,299.667,330.5,315z M366,338h-9h-5c19.333-21.333,29-47.333,29-78c0-36-12-64.667-36-86h5h10h5    c21.333,32,32,60.667,32,86c0,30.667-8.667,56.667-26,78H366z M408,338h-9h-5c18.667-21.333,28-47.333,28-78c0-36-12-64.667-36-86    h5h10h6c21.333,32,32,60.667,32,86c0,30.667-8.667,56.667-26,78H408z M455,338h-5h-9h-6c19.333-21.333,29-47.333,29-78    c0-36-12-64.667-36-86h5h10h5c21.333,32,32,60.667,32,86C480,290.667,471.667,316.667,455,338z" data-original="#010002" class="active-path" data-old_color="#FFC100" fill="#FFBA00"/>
		<path d="M264,215h-8v92h8c12,0,22.333-4.667,31-14s13-20.167,13-32.5s-4.333-23-13-32S276,215,264,215z" data-original="#010002" class="active-path" data-old_color="#FFC100" fill="#FFBA00"/>
		<polygon points="164,286 164,226 126,286   " data-original="#010002" class="active-path" data-old_color="#FFC100" fill="#FFBA00"/>
	</g>
</g></g> </svg>
